# xmcd
#
# Track frame offsets:
#  150
#  11403
#  25473
#  47073
#  61597
#  67723
#  81286
#  96677
#  109767
#  121054
#  136126
#  150813
#  181505
#  194323
#  203866
#  216837
#
# Disc length: 3058 seconds
#
# Revision: 0
# Processed by: cddbd v1.5.1PL2 Copyright (c) Steve Scherf et al.
# Submitted via: Collectorz.com_Music_Collector 6.9
#
DISCID=c80bf010
DTITLE=Various Artist - Latin Carnival Party
DYEAR=2005
DGENRE=Latin
TTITLE0=Perez Prado - Cuban Mambo
TTITLE1=Tito Puente - Caravan
TTITLE2=Jose Feliciano - Malaguena
TTITLE3=Artie Butlers Hollywood Rainbow Pops - Brazil
TTITLE4=Los Amigos - Perfidia
TTITLE5=Machito and His Afro - Cubans - Sentimental Mambo
TTITLE6=Celia Cruz - The Breeze And I
TTITLE7=Celia Cruz - Mambo Del Amore
TTITLE8=Machito and His Afro - Cubans - Dragnet Mambo
TTITLE9=Perez Prado - Broadway Mambo
TTITLE10=Tito Puente - The Donkey Serenade
TTITLE11=Jose Feliciano - Bambaleo
TTITLE12=Los Amigos - Maria Elena
TTITLE13=The Joe Cuba Sextet - Mambo of The Times
TTITLE14=Jose Feliciano - La Bamba
TTITLE15=Perez Prado - Mambo No 5
EXTD=
EXTT0=
EXTT1=
EXTT2=
EXTT3=
EXTT4=
EXTT5=
EXTT6=
EXTT7=
EXTT8=
EXTT9=
EXTT10=
EXTT11=
EXTT12=
EXTT13=
EXTT14=
EXTT15=
PLAYORDER=
